<?xml version="1.0" standalone="no"?><!DOCTYPE svg PUBLIC "-//W3C//DTD SVG 1.1//EN" "http://www.w3.org/Graphics/SVG/1.1/DTD/svg11.dtd"><svg t="1548228598276" class="icon" style="" viewBox="0 0 1193 1024" version="1.1" xmlns="http://www.w3.org/2000/svg" p-id="2348" xmlns:xlink="http://www.w3.org/1999/xlink" width="233.0078125" height="200"><defs><style type="text/css"></style></defs><path d="M1142.607806 468.980816H1023.230871c-25.580772 0-42.63462 17.053848-42.634619 42.63462s17.053848 42.63462 42.634619 42.634619h119.376935c25.580772 0 42.63462-17.053848 42.63462-42.634619s-17.053848-42.63462-42.63462-42.63462zM972.069328 289.915414l85.269239-85.26924c17.053848-17.053848 17.053848-42.63462 0-59.688467s-42.63462-17.053848-59.688467 0l-85.26924 85.269239c-17.053848 17.053848-17.053848 42.63462 0 59.688468 8.526924 8.526924 42.63462 8.526924 59.688468 0zM972.069328 733.315458c-17.053848-17.053848-42.63462-17.053848-59.688468 0s-17.053848 42.63462 0 59.688467l85.26924 85.26924c17.053848 17.053848 42.63462 17.053848 59.688467 0 17.053848-17.053848 17.053848-42.63462 0-59.688468l-85.269239-85.269239zM741.842382 306.969261V93.796163c0-51.161544-34.107696-85.269239-85.269239-85.269239-25.580772-8.526924-42.63462 0-59.688468 8.526924L298.442338 255.807718H144.957707C68.215391 255.807718 0 315.496185 0 392.238501v238.75387c0 76.742315 68.215391 144.957707 144.957707 144.957707h162.011554L596.884675 1006.177024c25.580772 17.053848 59.688468 25.580772 93.796163 8.526924 34.107696-17.053848 51.161544-42.63462 51.161544-76.742316V716.26161c93.796163-25.580772 153.484631-102.323087 153.484631-204.646174 0-93.796163-68.215391-179.065403-153.484631-204.646175zM332.550033 690.680838H144.957707c-34.107696 0-59.688468-25.580772-59.688468-59.688467V392.238501c0-25.580772 25.580772-51.161544 59.688468-51.161544h187.592326l324.02311-255.807718V929.434708L332.550033 690.680838z m409.292349-68.215391V392.238501c42.63462 25.580772 68.215391 68.215391 68.215391 119.376935 0 51.161544-25.580772 93.796163-68.215391 110.850011z" p-id="2349"></path></svg>