<?xml version="1.0" standalone="no"?><!DOCTYPE svg PUBLIC "-//W3C//DTD SVG 1.1//EN" "http://www.w3.org/Graphics/SVG/1.1/DTD/svg11.dtd"><svg t="1550717566258" class="icon" style="" viewBox="0 0 1024 1024" version="1.1" xmlns="http://www.w3.org/2000/svg" p-id="2326" xmlns:xlink="http://www.w3.org/1999/xlink" width="200" height="200"><defs><style type="text/css"></style></defs><path d="M941.54882 630.587313a444.307945 444.307945 0 0 1-41.949628 100.845369 126.808097 126.808097 0 0 1-167.734562 167.734563 442.133727 442.133727 0 0 1-100.909317 41.949627 127.383625 127.383625 0 0 1-238.076926 0 442.83715 442.83715 0 0 1-100.84537-41.949627 126.808097 126.808097 0 0 1-167.734563-167.734563 441.23846 441.23846 0 0 1-41.949627-100.845369 127.447573 127.447573 0 0 1 0-238.076926 441.23846 441.23846 0 0 1 41.949627-100.84537 126.808097 126.808097 0 0 1 167.734563-167.734563 442.517412 442.517412 0 0 1 100.84537-41.885679 127.383625 127.383625 0 0 1 238.076926 0 441.813989 441.813989 0 0 1 100.909317 41.949627 126.808097 126.808097 0 0 1 167.734562 167.734563 444.307945 444.307945 0 0 1 41.949628 100.845369 127.447573 127.447573 0 0 1 0 238.012979zM895.634441 447.633221h-6.39476a375.372429 375.372429 0 0 0-17.07401-63.947603 364.501337 364.501337 0 0 0-14.835844-36.578029 382.534561 382.534561 0 0 0-33.124858-57.552843l4.284489-4.348437a63.947603 63.947603 0 1 0-90.421911-90.42191l-4.284489 4.348437A381.831137 381.831137 0 0 0 639.844029 151.363976 377.930333 377.930333 0 0 0 575.896426 134.289966V127.895206a63.947603 63.947603 0 1 0-127.895205 0v6.39476a421.350756 421.350756 0 0 0-100.525632 31.973802 382.598508 382.598508 0 0 0-57.552843 33.124858L285.574309 195.040189a63.947603 63.947603 0 0 0-90.42191 90.42191l4.348437 4.348437A403.829113 403.829113 0 0 0 134.657966 447.633221H128.263206a63.947603 63.947603 0 0 0 0 127.895205h6.39476a375.244534 375.244534 0 0 0 17.010063 63.947603 381.127713 381.127713 0 0 0 14.899791 36.578029 377.290857 377.290857 0 0 0 33.124858 57.552843l-4.348437 4.348437a63.947603 63.947603 0 0 0 0 90.42191 63.947603 63.947603 0 0 0 90.421911 0l4.348437-4.348437a382.598508 382.598508 0 0 0 57.552843 33.124859 421.670494 421.670494 0 0 0 100.525631 31.973801V895.266441a63.947603 63.947603 0 0 0 127.895206 0v-6.39476a377.994281 377.994281 0 0 0 63.947603-17.07401 381.831137 381.831137 0 0 0 93.875081-48.02465l4.28449 4.348437a63.947603 63.947603 0 0 0 90.42191 0 63.947603 63.947603 0 0 0 0-90.421911l-4.284489-4.348437a382.534561 382.534561 0 0 0 33.124858-57.552842 365.588446 365.588446 0 0 0 14.644001-36.322239 375.372429 375.372429 0 0 0 17.07401-63.947603H895.634441a63.947603 63.947603 0 0 0 0-127.895205z m-383.685618 255.790411a191.842809 191.842809 0 1 1 191.842809-191.842809 191.842809 191.842809 0 0 1-191.842809 191.842809z m0-319.738014a127.895206 127.895206 0 1 0 127.895206 127.895205 127.895206 127.895206 0 0 0-127.895206-127.895205z" p-id="2327"></path></svg>